<?xml version="1.0" encoding="utf-8"?>
<svg viewBox="0 0 500 500" xmlns="http://www.w3.org/2000/svg">
  <g transform="matrix(1, 0, 0, 1, -104.999185, -181.549105)">
    <g>
      <path d="M 593.151 620.866 C 572.469 569.895 524.63 534.495 470.212 529.359 C 458.183 507.372 440.743 488.766 419.481 475.306 C 398.784 462.203 375.233 454.53 350.827 452.854 L 350.827 396.697 L 391.316 396.697 C 472.538 396.697 538.615 330.619 538.615 249.398 L 538.615 198.708 C 538.615 193.074 534.048 188.507 528.414 188.507 L 477.725 188.507 C 415.507 188.507 362.176 227.282 340.626 281.936 C 319.074 227.282 265.744 188.507 203.526 188.507 L 152.837 188.507 C 147.203 188.507 142.636 193.074 142.636 198.708 L 142.636 249.398 C 142.636 330.62 208.714 396.697 289.935 396.697 L 330.425 396.697 L 330.425 452.854 C 306.019 454.53 282.469 462.204 261.771 475.306 C 240.509 488.766 223.067 507.371 211.04 529.359 C 156.621 534.495 108.782 569.895 88.1 620.866 C 82.161 635.502 83.91 652.101 92.776 665.267 C 101.747 678.59 116.679 686.543 132.714 686.543 L 548.536 686.543 C 564.572 686.543 579.503 678.59 588.474 665.267 C 597.341 652.1 599.09 635.502 593.151 620.866 Z M 350.826 335.808 C 350.826 265.835 407.752 208.908 477.725 208.908 L 518.213 208.908 L 518.213 249.397 C 518.213 319.369 461.287 376.295 391.315 376.295 L 365.253 376.295 L 476.433 265.115 C 480.416 261.132 480.416 254.673 476.433 250.688 C 472.45 246.705 465.991 246.706 462.006 250.688 L 350.826 361.87 L 350.826 335.808 Z M 204.817 265.115 L 315.997 376.296 L 289.935 376.296 C 219.964 376.296 163.038 319.37 163.038 249.397 L 163.038 208.908 L 203.526 208.908 C 273.499 208.908 330.425 265.834 330.425 335.807 L 330.425 361.869 L 219.244 250.689 C 215.261 246.706 208.803 246.707 204.817 250.689 C 200.834 254.672 200.834 261.131 204.817 265.115 Z M 571.552 653.871 C 566.3 661.669 557.911 666.142 548.536 666.142 L 132.715 666.142 C 123.34 666.142 114.95 661.669 109.698 653.871 C 104.554 646.231 103.572 636.996 107.004 628.536 C 125.467 583.034 169.037 551.93 218.004 549.296 C 221.676 549.098 224.958 546.94 226.593 543.646 C 248.257 500.009 291.952 472.901 340.626 472.901 C 383.612 472.901 422.703 494.054 446.177 529.052 C 435.599 529.77 425.157 531.607 415.023 534.552 C 409.613 536.124 406.501 541.784 408.074 547.194 C 409.371 551.654 413.443 554.551 417.865 554.551 C 418.806 554.551 419.766 554.419 420.716 554.143 C 432.219 550.8 444.19 549.105 456.293 549.105 L 463.246 549.297 C 512.213 551.931 555.783 583.035 574.246 628.537 C 577.679 636.996 576.698 646.231 571.552 653.871 Z" style="fill: rgb(58, 58, 58); paint-order: stroke markers; fill-rule: nonzero;"/>
    </g>
  </g>
  <g transform="matrix(1, 0, 0, 1, -104.999185, -181.549105)">
    <g>
      <path d="M 390.607 555.157 C 387.56 550.419 381.248 549.05 376.51 552.097 C 374.829 553.179 373.144 554.312 371.503 555.465 C 366.893 558.704 365.783 565.067 369.021 569.675 C 371.007 572.502 374.166 574.012 377.376 574.012 C 379.402 574.012 381.448 573.41 383.232 572.156 C 384.646 571.161 386.098 570.185 387.547 569.253 C 392.285 566.207 393.655 559.896 390.607 555.157 Z"/>
    </g>
  </g>
</svg>